<?xml version="1.0" encoding="UTF-8" standalone="no"?>
<!-- Created with Inkscape (http://www.inkscape.org/) -->

<svg
   width="25mm"
   height="24mm"
   viewBox="0 0 25 24"
   version="1.1"
   id="svg5"
   xmlns="http://www.w3.org/2000/svg"
   xmlns:svg="http://www.w3.org/2000/svg">
  <defs
     id="defs2" />
  <g
     id="layer1">
    <path
       style="fill:#20c997;fill-opacity:1;stroke:none;stroke-width:0.264583px;stroke-linecap:butt;stroke-linejoin:miter;stroke-opacity:1"
       d="m 5.9730954,21.89704 c 0,0 2.3841698,-0.37142 8.5688086,-6.22533 7.37129,-6.977101 7.02475,-12.774741 7.02475,-12.774741 l -18.1528286,1.86176 -1.15349,2.2516 c 0,0 2.42584,3.03898 10.4294886,8.727531 8.00364,5.68854 7.90654,5.68968 7.90654,5.68968 l 2.24896,-2.24896 c 0,0 -2.35029,-2.31625 -7.64196,-5.88812 C 9.9116943,9.718579 7.6568955,7.598999 7.6568955,7.598999 l 9.5441385,-1.39474 c 0,0 -0.0133,2.91901 -5.43725,7.416931 -5.4239586,4.49792 -7.1135986,5.56387 -7.1135986,5.56387 z"
       id="path5639" />
  </g>
</svg>
