<?xml version="1.0" encoding="UTF-8" standalone="no"?>
<!-- Created with Inkscape (http://www.inkscape.org/) -->

<svg
   width="125mm"
   height="110mm"
   viewBox="0 0 125 110"
   version="1.1"
   id="svg5"
   xmlns="http://www.w3.org/2000/svg"
   xmlns:svg="http://www.w3.org/2000/svg">
  <defs
     id="defs2" />
  <g
     id="layer1">
    <path
       id="path6985"
       style="fill:#b7d1de;fill-opacity:1;stroke:none;stroke-width:0.903469px;stroke-linecap:butt;stroke-linejoin:miter;stroke-opacity:1"
       d="M 104.85898,3.4319244e-4 C 76.889092,0.03483155 34.331842,2.3803379 34.331842,16.331625 c 0,20.779816 42.463107,11.293378 43.366566,23.941959 C 78.601901,52.922163 0,44.33921 0,75.508915 0,99.037104 38.969128,106.54274 74.178067,108.52264 l -3.716242,-8.45592 -14.928411,-2.421014 13.717904,-5.447294 1.210507,-23.401989 6.456633,21.78739 16.543037,2.421019 -14.727275,6.052545 -1.625188,9.615243 c 27.837468,1.33767 52.538888,-0.63878 52.538888,-0.63878 L 128.74447,0.52089904 c 0,0 -9.21933,-0.48570554 -21.89681,-0.51879045 C 106.19399,3.90998e-4 105.53024,-5.1048e-4 104.85898,3.02216e-4 Z M 87.805993,12.287184 l 4.065588,3.557414 -3.19211,4.39736 -4.713229,-4.171492 z m 4.573797,38.058681 5.194973,1.806941 -2.936292,6.32429 -6.098422,-2.71041 z m -36.167023,15.302524 3.86799,5.929023 -4.263274,3.585646 -4.178523,-3.783278 z" />
  </g>
</svg>
