<?xml version="1.0" encoding="UTF-8" standalone="no"?>
<!-- Created with Inkscape (http://www.inkscape.org/) -->

<svg
   width="229mm"
   height="234mm"
   viewBox="0 0 229 234"
   version="1.1"
   id="svg3441"
   xmlns="http://www.w3.org/2000/svg"
   xmlns:svg="http://www.w3.org/2000/svg">
  <defs
     id="defs3438" />
  <g
     id="layer1">
    <path
       style="fill:#f18441;fill-opacity:0.992157;stroke:none;stroke-width:0.24241px;stroke-linecap:butt;stroke-linejoin:miter;stroke-opacity:1"
       d="m 124.66371,58.405253 c -1.97757,-1.771543 -3.47504,-3.997488 -4.80459,-6.276917 -1.68749,-2.893086 -8.56772,-9.057114 -5.23749,-8.57993 1.11436,0.159675 2.08166,0.814106 2.90005,1.554013 1.39302,1.259429 2.45988,2.835926 3.87339,4.073119 0.68102,0.596073 1.49442,1.120549 2.42033,1.194112 0.6014,0.04778 1.34813,0.06478 1.73426,-0.392445 0.6637,-0.785907 1.48481,-1.437517 2.3852,-1.928242 0.59049,-0.321825 1.2241,-0.614512 1.90393,-0.664724 0.35347,-0.02611 0.75842,0.07414 0.95542,0.393523 0.24386,0.39535 0.20138,0.889949 0.12848,1.327922 -0.0913,0.548601 -0.28601,1.070095 -0.45285,1.598073 -0.55337,1.751202 -1.61663,3.290056 -2.81884,4.658834 -0.93866,1.06871 -1.96909,2.051149 -2.98729,3.042662 z"
       id="path7103" />
    <path
       style="fill:#e25e3c;fill-opacity:1;stroke:none;stroke-width:0.255315px;stroke-linecap:butt;stroke-linejoin:miter;stroke-opacity:1"
       d="m 83.177444,192.27828 -8.47085,-70.94343 67.766736,-50.825157 62.82541,48.354487 -6.35314,72.7082 -52.58981,27.53028 z"
       id="path3535" />
    <path
       style="fill:#f18441;fill-opacity:0.992157;stroke:none;stroke-width:0.24241px;stroke-linecap:butt;stroke-linejoin:miter;stroke-opacity:1"
       d="m 164.12302,62.55226 c -1.68399,-0.140633 -3.3563,-0.434152 -4.9861,-0.877565 -1.21246,-0.329869 -2.43439,-0.695909 -3.52744,-1.325131 -0.50921,-0.29313 -0.94979,-0.689791 -1.33941,-1.145274 -0.10583,-0.12372 0.13891,-0.06628 0.20828,-0.06588 3.49533,0.01999 6.89709,1.028929 10.39036,1.084019 1.70826,0.02694 3.34759,-0.503218 5.021,-0.885204 0.68932,-0.15735 1.41471,-0.290854 2.11583,-0.145066 0.31465,0.06543 0.67284,0.202005 0.79911,0.522133 0.12321,0.312372 -0.0493,0.646778 -0.26236,0.873555 -0.43519,0.463095 -1.04324,0.711917 -1.63941,0.898753 -0.24081,0.07547 -0.4884,0.117869 -0.72749,0.201811 -1.51412,0.531599 -3.12808,0.651394 -4.71695,0.762795 -0.44532,0.03122 -0.89071,0.06189 -1.33542,0.101053 z"
       id="path7333" />
    <ellipse
       style="opacity:0.99;fill:#f18441;fill-opacity:1;stroke:none;stroke-width:0.258;stroke-linecap:round;stroke-linejoin:round"
       id="path6575"
       cx="48.622406"
       cy="48.622471"
       rx="33.622406"
       ry="33.622471" />
    <path
       style="fill:#20c997;fill-opacity:1;stroke:none;stroke-width:0.264583px;stroke-linecap:butt;stroke-linejoin:miter;stroke-opacity:1"
       d="m 118.14898,185.03445 9.87562,-10.60716 -18.83682,0.36576 z"
       id="path5560" />
    <path
       style="fill:#ffffff;fill-opacity:1;stroke:none;stroke-width:0.264583px;stroke-linecap:butt;stroke-linejoin:miter;stroke-opacity:1"
       d="m 19.643123,139.26094 c 0,0 69.806461,6.39392 108.601537,-19.46952 38.79509,-25.86344 63.3653,-88.323645 63.3653,-88.323645 L 27.377451,24.743281 c 0,0 48.355773,65.600466 87.218149,94.495849 38.86238,28.89537 99.21966,26.29065 99.21966,26.29065 l 0.12552,-13.88067 c 0,0 -49.25127,9.18849 -89.74389,-19.72527 C 82.998174,82.505889 53.604534,38.039459 53.604534,38.039459 l 118.141616,2.926114 c 0,0 -18.65394,57.790757 -54.133,73.152857 -35.479066,15.3621 -96.561574,14.99632 -96.561574,14.99632 z"
       id="path6712" />
    <path
       style="fill:#f18441;fill-opacity:0.992157;stroke:none;stroke-width:0.24241px;stroke-linecap:butt;stroke-linejoin:miter;stroke-opacity:1"
       d="m 172.79402,56.771586 c -2.46288,-0.700062 -4.79829,-1.885991 -6.76799,-3.52636 -1.03765,-0.864154 -3.80308,-3.798951 -2.72706,-2.98049 1.31288,0.998626 2.78596,1.792055 4.34871,2.31914 1.45212,0.489772 3.0157,0.75469 4.54404,0.515584 1.17976,-0.184572 2.30726,-0.732901 3.14421,-1.588545 0.303,-0.309768 0.57167,-0.652344 0.80825,-1.017168 0.37606,-0.579924 0.90923,-1.087518 1.56306,-1.326114 0.27387,-0.09994 0.60327,-0.181367 0.8698,-0.02664 0.22755,0.132096 0.26442,0.424986 0.23026,0.663613 -0.0711,0.496534 -0.34901,0.926664 -0.56661,1.369204 -0.48581,0.987989 -0.9173,2.002262 -1.42536,2.979443 -0.46952,0.903062 -0.94378,1.82346 -1.62634,2.584685 -0.30607,0.341343 -0.65966,0.685123 -1.11754,0.802704 -0.32861,0.08439 -0.66929,-0.06088 -0.90743,-0.290146 -0.14591,-0.140478 -0.26547,-0.306083 -0.37,-0.478908 z"
       id="path7337" />
    <path
       style="fill:#f18441;fill-opacity:0.992157;stroke:none;stroke-width:0.24241px;stroke-linecap:butt;stroke-linejoin:miter;stroke-opacity:1"
       d="m 185.73767,70.971936 c -0.95833,-0.995306 -2.06617,-1.828775 -3.15212,-2.677175 -1.2108,-0.945936 -2.46939,-1.850004 -3.52757,-2.969368 -0.50067,-0.529621 -1.10414,-1.079889 -1.22545,-1.810471 -0.0224,-0.13484 -0.18012,-0.331292 0.076,-0.353974 1.125,-0.09964 2.22711,0.279175 3.22051,0.7758 1.51681,0.758291 2.86707,1.824148 4.43974,2.474371 0.86616,0.358116 1.83949,0.538799 2.76449,0.313992 0.48589,-0.118088 1.02066,-0.248172 1.36342,-0.611018 0.87319,-0.924372 1.79779,-1.807956 2.81953,-2.56564 0.54597,-0.404871 1.105,-0.825715 1.75667,-1.03809 0.26994,-0.08797 0.61582,-0.162477 0.84864,0.04019 0.2437,0.212129 0.2739,0.567501 0.25861,0.867733 -0.0368,0.723342 -0.23005,1.431155 -0.47799,2.107737 -0.581,1.585457 -1.49684,3.060696 -2.71831,4.230842 -0.96411,0.923599 -2.16776,1.653383 -3.50635,1.851573 -0.98444,0.145755 -2.88565,0.514718 -2.89402,-0.476587 -0.001,-0.123118 -0.002,-0.246236 -0.003,-0.369355"
       id="path7341" />
    <path
       style="fill:#20c997;fill-opacity:1;stroke:none;stroke-width:0.264583px;stroke-linecap:butt;stroke-linejoin:miter;stroke-opacity:1"
       d="m 119.24627,167.66065 -10.42426,-9.50986 18.1053,-0.36577 z"
       id="path5562" />
    <path
       style="fill:#20c997;fill-opacity:1;stroke:none;stroke-width:0.264583px;stroke-linecap:butt;stroke-linejoin:miter;stroke-opacity:1"
       d="m 118.51475,150.65262 -10.97291,-9.87564 19.75123,-0.36576 z"
       id="path5564" />
    <path
       style="fill:#20c997;fill-opacity:1;stroke:none;stroke-width:0.264583px;stroke-linecap:butt;stroke-linejoin:miter;stroke-opacity:1"
       d="m 129.48765,121.39147 20.48276,-0.91441 -10.79002,10.42428 z"
       id="path5566" />
    <path
       style="fill:#20c997;fill-opacity:1;stroke:none;stroke-width:0.264583px;stroke-linecap:butt;stroke-linejoin:miter;stroke-opacity:1"
       d="m 151.0677,139.67969 8.77832,9.50987 9.87562,-11.15581 z"
       id="path5568" />
    <path
       style="fill:#20c997;fill-opacity:1;stroke:none;stroke-width:0.264583px;stroke-linecap:butt;stroke-linejoin:miter;stroke-opacity:1"
       d="m 153.81092,156.13908 17.73954,-0.18288 -11.15579,11.1558 z"
       id="path5570" />
    <path
       style="fill:#20c997;fill-opacity:1;stroke:none;stroke-width:0.264583px;stroke-linecap:butt;stroke-linejoin:miter;stroke-opacity:1"
       d="m 161.30908,184.4858 10.60714,-12.07022 -19.75123,1.09731 z"
       id="path5572" />
  </g>
</svg>
