<?xml version="1.0" encoding="UTF-8" standalone="no"?>
<!-- Created with Inkscape (http://www.inkscape.org/) -->

<svg
   width="155mm"
   height="245mm"
   viewBox="0 0 155 245"
   version="1.1"
   id="svg5"
   xmlns="http://www.w3.org/2000/svg"
   xmlns:svg="http://www.w3.org/2000/svg">
  <defs
     id="defs2" />
  <g
     id="layer1">
    <path
       style="fill:#20c997;fill-opacity:1;stroke:none;stroke-width:0.264583px;stroke-linecap:butt;stroke-linejoin:miter;stroke-opacity:1"
       d="M 1.4630542,194.29658 0,247.69806 114.48398,245.50347 c 0,0 -36.576345,-28.89532 -61.448266,-38.40517 C 28.163793,197.58845 1.4630542,194.29658 1.4630542,194.29658 Z"
       id="path857" />
    <path
       style="fill:#20c997;stroke:none;stroke-width:0.264583px;stroke-linecap:butt;stroke-linejoin:miter;stroke-opacity:1;fill-opacity:1"
       d="m 64.557265,114.3011 29.992609,6.76663 -24.87192,22.86022 z"
       id="path14740" />
    <path
       id="path1005"
       style="fill:#e25e3c;fill-opacity:1;stroke:none;stroke-width:0.999999px;stroke-linecap:butt;stroke-linejoin:miter;stroke-opacity:1"
       d="m 161.24023,396.89844 c -16.90554,-0.48613 -40.15899,7.93824 -40.74218,27.73242 -1.20241,30.72907 9.5827,60.35598 12.21289,90.60547 -8.74038,17.66407 -33.495874,19.73071 -39.677737,39.67773 -13.452393,28.97001 -24.67607,60.72345 -22.683594,93.09571 -2.395453,12.59682 21.196778,38.40759 25.400391,16.02734 9.08818,-29.65353 12.33198,-61.15833 25.90234,-89.35742 6.38978,16.68155 -1.01774,35.04115 0.8125,52.45117 1.27273,49.14595 10.62443,97.60783 13.70313,146.61719 7.81469,11.87274 32.60427,13.14214 32.47851,-5.07227 2.73663,-22.98213 -6.77919,-46.89144 1.0918,-69.25195 13.26177,-12.09056 10.82242,19.05098 12.5293,26.91992 2.49717,19.74214 1.66387,40.55808 9.05859,59.24414 18.76327,9.56224 22.93259,-13.59368 20.23438,-27.27148 1.02239,-41.17418 0.66108,-82.67493 -7.32422,-123.23633 -2.35096,-21.03285 -6.62896,-31.11749 -7.72656,-61.96513 7.75692,-1.16527 23.20785,-5.74928 37.17919,-12.02657 13.97134,-6.27729 30.42814,-23.99493 35.14893,-37.57276 4.72079,-13.57783 3.7281,-17.20979 0.0801,-18.05664 -3.648,-0.84685 -8.18635,6.44385 -10.41044,11.34009 0.30521,-2.40737 3.41271,-15.38478 0.53148,-14.93136 -2.81834,0.4602 -5.66677,5.30292 -7.36323,7.3569 -0.5693,0.68928 -1.13155,1.38868 -1.67969,2.09766 1.04888,-2.24565 2.2107,-13.17998 -0.57617,-12.61133 -2.80609,0.7158 -4.72071,3.32589 -6.64062,5.45312 -4.81531,5.3353 -8.3928,11.62791 -12.32813,17.61328 -11.9289,12.8979 -19.15486,14.84489 -35.21484,13.92188 -25.90059,-4.77382 -6.12203,-34.09069 4.65186,-45.03784 2.17099,-23.68422 3.357,-58.04771 -5.31983,-80.56568 -5.74591,-11.38783 -22.07697,-12.32083 -33.32813,-13.19726 z"
       transform="scale(0.26458333)" />
    <path
       style="fill:#f18441;fill-opacity:1;stroke:none;stroke-width:0.264583px;stroke-linecap:butt;stroke-linejoin:miter;stroke-opacity:1"
       d="m 85.286425,30.724138 -3.499171,27.597801 -12.200166,-11.3707 -5.179044,5.017638 10.704487,10.882962 -4.519426,5.465984 -16.863549,-3.324968 -0.462146,7.404165 17.786539,4.546559 3.270563,6.542233 -10.503122,9.016368 6.071887,3.094728 10.988759,-8.954558 2.031161,19.44111 9.801013,1.27152 3.685858,-18.514243 8.357882,9.276898 7.5183,-3.590759 -10.34814,-9.990255 3.114,-5.230153 19.44323,2.578726 0.45754,-9.23436 -18.92899,-1.338251 -3.98684,-7.841666 9.01563,-10.186955 -5.52141,-3.704997 -8.603934,9.518876 -2.816244,-28.15679 z"
       id="path1787" />
    <circle
       style="opacity:0.99;fill:#ffffff;fill-opacity:1;stroke:none;stroke-width:0.258;stroke-linecap:round;stroke-linejoin:round;stroke-opacity:1"
       id="path2288"
       cx="89.028999"
       cy="73.19339"
       r="9.8280869" />
    <path
       style="fill:#20c997;stroke:none;stroke-width:0.264583px;stroke-linecap:butt;stroke-linejoin:miter;stroke-opacity:1;fill-opacity:1"
       d="m 29.809728,79.919334 6.583743,11.887314 -14.996304,0.365765 z"
       id="path14738" />
    <path
       style="fill:#20c997;stroke:none;stroke-width:0.264583px;stroke-linecap:butt;stroke-linejoin:miter;stroke-opacity:1;fill-opacity:1"
       d="m 139.53879,92.903939 -16.0936,18.105301 22.67734,5.48645 z"
       id="path14742" />
  </g>
</svg>
