<?xml version="1.0" encoding="UTF-8" standalone="no"?>
<!-- Created with Inkscape (http://www.inkscape.org/) -->

<svg
   width="155mm"
   height="245mm"
   viewBox="0 0 155 245"
   version="1.1"
   id="svg5"
   xmlns="http://www.w3.org/2000/svg"
   xmlns:svg="http://www.w3.org/2000/svg">
  <defs
     id="defs2" />
  <g
     id="layer1">
    <path
       style="fill:#20c997;fill-opacity:1;stroke:none;stroke-width:0.264583px;stroke-linecap:butt;stroke-linejoin:miter;stroke-opacity:1"
       d="M -1.252463,194.29658 0,247.69806 114.48398,245.50347 c 0,0 -36.576345,-28.89532 -61.448266,-38.40517 -24.871921,-9.50985 -54.288177,-12.80172 -54.288177,-12.80172 z"
       id="path857" />
    <path
       style="fill:#e25e3c;fill-opacity:1;stroke:none;stroke-width:0.264583px;stroke-linecap:butt;stroke-linejoin:miter;stroke-opacity:1"
       d="m 36.027709,204.72084 c -0.865279,-13.8773 -4.337397,-27.62166 -3.654202,-41.54032 0.159106,-3.24145 0.561988,-6.47907 0.348236,-9.74134 -0.02912,-0.44449 -0.374955,-1.9549 -0.800778,-0.92143 -1.315693,3.19318 -2.529033,6.45077 -3.309019,9.81502 -1.091931,4.70974 -1.551722,9.65077 -3.517088,14.07496 -0.307155,0.69143 -0.505457,2.01313 -1.467968,1.84934 -1.209592,-0.20584 -2.212143,-1.04626 -3.023187,-1.9025 -1.752454,-1.85012 -2.126825,-4.53354 -2.110527,-6.97124 0.03283,-4.91082 1.188134,-9.75207 2.772187,-14.37038 1.2264,-3.57557 2.57575,-7.15444 4.582573,-10.37283 1.321842,-2.11987 3.64214,-3.2336 5.68531,-4.52494 1.525476,-0.96414 3.648815,-2.15033 3.626975,-3.98323 -0.02125,-1.78338 -0.464224,-3.53211 -0.801585,-5.27645 -1.034555,-5.3492 -2.416022,-10.69583 -2.500122,-16.15869 -0.02702,-1.75507 -0.287221,-3.74359 0.736052,-5.23033 1.970833,-2.86348 5.492428,-4.24553 8.866342,-4.42298 2.99357,-0.15745 6.35466,-0.0363 8.733972,1.81192 1.326714,1.03056 1.846681,2.7517 2.20217,4.31579 0.952878,4.19248 1.221807,8.53654 0.917696,12.8098 -0.112614,1.58241 0.04558,3.27369 -0.599893,4.73421 -1.28423,2.90582 -3.145526,5.51591 -4.267658,8.52033 -0.373169,0.99913 0.04038,1.98908 0.584817,2.85269 2.174019,3.4485 4.909144,6.49303 7.384366,9.721 2.588771,3.37605 5.247544,6.81926 6.759783,10.83497 0.827665,2.19784 0.902566,4.67705 -0.03584,6.94601 -0.326583,0.78964 -1.193534,1.24782 -2.037481,1.02574 -1.923889,-0.50626 -3.403649,-1.96159 -4.83726,-3.26586 -1.025598,-0.93307 -1.777375,-2.09496 -2.58161,-3.2116 -0.413237,-0.57376 -1.614304,-2.11485 -1.476592,-1.92334 1.595911,2.21942 1.332109,5.08543 1.79495,7.65259 0.755056,4.18793 1.364279,8.40514 1.686023,12.65117 0.642635,8.48079 0.740551,17.00893 0.18853,25.48477 -0.09443,1.44985 -1.577319,2.42667 -2.918777,2.33891 -0.859066,-0.0562 -2.109052,0.16745 -2.526952,-0.8029 -0.807356,-1.87465 -1.021632,-3.93731 -1.279928,-5.94376 -0.664164,-5.15923 -0.71524,-10.39179 -1.592384,-15.51942 -0.140271,-0.82 -0.223788,-2.06076 -1.342524,-2.05277 -1.022067,0.007 -1.444911,1.12834 -1.665491,1.94351 -0.755333,2.79141 -0.432592,5.72079 -0.23501,8.56533 0.214508,3.08821 0.681198,6.2046 0.237877,9.29206 -0.178788,1.24515 -0.786015,2.59496 -2.065888,3.02726 -1.863705,0.6295 -3.96552,-0.004 -5.489938,-1.12449 -0.375479,-0.27611 -0.748204,-0.58855 -0.970157,-1.00658 z"
       id="path1005" />
    <path
       style="fill:#f18441;fill-opacity:1;stroke:none;stroke-width:0.264583px;stroke-linecap:butt;stroke-linejoin:miter;stroke-opacity:1"
       d="M 89.675588,0 81.787254,58.321939 68.855561,46.03683 l 3.879507,19.00959 -47.71795,0.129317 46.036831,11.767842 -8.146968,14.095547 17.975055,-4.396776 5.431312,51.98541 10.08672,-49.787023 15.876182,5.686139 -7.5999,-13.574472 45.7782,-1.810437 -43.70913,-11.121256 9.05219,-17.845739 -18.880274,8.922869 z"
       id="path1787" />
    <circle
       style="opacity:0.99;fill:#ffffff;fill-opacity:1;stroke:none;stroke-width:0.258;stroke-linecap:round;stroke-linejoin:round;stroke-opacity:1"
       id="path2288"
       cx="89.028999"
       cy="73.19339"
       r="9.8280869" />
  </g>
</svg>
