<?xml version="1.0" encoding="UTF-8" standalone="no"?>
<!-- Created with Inkscape (http://www.inkscape.org/) -->

<svg
   width="210mm"
   height="297mm"
   viewBox="0 0 210 297"
   version="1.1"
   id="svg3602"
   xmlns="http://www.w3.org/2000/svg"
   xmlns:svg="http://www.w3.org/2000/svg">
  <defs
     id="defs3599" />
  <g
     id="layer1">
    <path
       id="path4096"
       style="fill:#20c997;fill-opacity:1;stroke:none;stroke-width:0.181858px;stroke-linecap:butt;stroke-linejoin:miter;stroke-opacity:1"
       d="m 204.01004,92.48853 -70.14146,7.290664 38.21329,39.973266 z m -11.3132,6.285116 -20.61497,31.928174 -27.65451,-27.90563 z" />
    <path
       id="path4096-6"
       style="fill:#20c997;fill-opacity:1;stroke:none;stroke-width:0.181858px;stroke-linecap:butt;stroke-linejoin:miter;stroke-opacity:1"
       d="m 200.61602,53.77248 -70.14146,7.290664 38.21329,39.973266 z m -11.3132,6.285116 -20.61497,31.928174 -27.65451,-27.90563 z" />
    <path
       id="path4096-7"
       style="fill:#20c997;fill-opacity:1;stroke:none;stroke-width:0.181858px;stroke-linecap:butt;stroke-linejoin:miter;stroke-opacity:1"
       d="M 196.84498,14.302196 126.70351,21.59286 164.9168,61.566124 Z M 185.53177,20.587312 164.9168,52.515486 137.26229,24.609857 Z" />
    <path
       style="fill:#20c997;fill-opacity:1;stroke:none;stroke-width:0.181858px;stroke-linecap:butt;stroke-linejoin:miter;stroke-opacity:1"
       d="m 167.05371,132.96452 5.02816,-2.2627 c 0,0 33.93931,149.58491 -29.91707,150.59052 -63.856381,1.0056 -46.760971,-82.96301 -82.460209,-75.42092 -35.699235,7.54209 -33.185208,93.52195 -33.185208,93.52195 l -10.558924,1.00561 c 0,0 -9.5533202,-91.51072 41.230102,-100.56124 50.783419,-9.05051 27.349282,77.93429 85.979849,73.40971 42.61183,-3.28839 23.8833,-140.28293 23.8833,-140.28293 z"
       id="path4933" />
  </g>
</svg>
