<?xml version="1.0" encoding="UTF-8" standalone="no"?>
<!-- Created with Inkscape (http://www.inkscape.org/) -->

<svg
   width="210mm"
   height="297mm"
   viewBox="0 0 210 297"
   version="1.1"
   id="svg3602"
   xmlns="http://www.w3.org/2000/svg"
   xmlns:svg="http://www.w3.org/2000/svg">
  <defs
     id="defs3599" />
  <g
     id="layer1">
    <path
       id="path4096"
       style="fill:#20c997;fill-opacity:1;stroke:none;stroke-width:0.181858px;stroke-linecap:butt;stroke-linejoin:miter;stroke-opacity:1"
       d="m 16.304803,93.546864 70.14146,7.290666 -38.21329,39.97327 z m 11.3132,6.285116 20.61497,31.92818 27.65451,-27.90563 z" />
    <path
       id="path4096-6"
       style="fill:#20c997;fill-opacity:1;stroke:none;stroke-width:0.181858px;stroke-linecap:butt;stroke-linejoin:miter;stroke-opacity:1"
       d="m 18.640489,53.77248 70.14146,7.290664 -38.21329,39.973266 z m 11.3132,6.285116 20.61497,31.928174 27.65451,-27.90563 z" />
    <path
       id="path4096-7"
       style="fill:#20c997;fill-opacity:1;stroke:none;stroke-width:0.181858px;stroke-linecap:butt;stroke-linejoin:miter;stroke-opacity:1"
       d="m 22.411529,14.302196 70.14147,7.290664 -38.21329,39.973264 z m 11.31321,6.285116 20.61497,31.928174 27.65451,-27.905629 z" />
    <path
       style="fill:#20c997;fill-opacity:1;stroke:none;stroke-width:0.181858px;stroke-linecap:butt;stroke-linejoin:miter;stroke-opacity:1"
       d="m 52.202799,132.96452 -5.02816,-2.2627 c 0,0 -33.93931,149.58491 29.91707,150.59052 63.856381,1.0056 46.760971,-82.96301 82.460211,-75.42092 35.69923,7.54209 33.18521,93.52195 33.18521,93.52195 l 10.55892,1.00561 c 0,0 9.55332,-91.51072 -41.2301,-100.56124 -50.78342,-9.05051 -27.34928,77.93429 -85.979851,73.40971 -42.61183,-3.28839 -23.8833,-140.28293 -23.8833,-140.28293 z"
       id="path4933" />
    <path
       style="fill:#e25e3c;stroke:none;stroke-width:0.264583px;stroke-linecap:butt;stroke-linejoin:miter;stroke-opacity:1;fill-opacity:1"
       d="m 123.36836,266.39289 c -1.25798,-0.47288 -2.56598,-0.90058 -3.6674,-1.68123 -0.33434,-0.23697 -0.72231,-0.48781 -0.85952,-0.89376 -0.0996,-0.29461 0.15168,-0.54838 0.39712,-0.66589 0.63298,-0.30307 1.34975,-0.37114 2.04091,-0.3919 1.39597,-0.0419 2.81686,0.0675 4.14891,0.49633 0.55765,0.17953 1.98695,1.22524 1.56086,0.80875 -0.76998,-0.75263 -1.45332,-1.60285 -1.98343,-2.54083 -0.50859,-0.89991 -0.8833,-1.92341 -0.80697,-2.97645 0.029,-0.40047 0.17246,-0.78956 0.43176,-1.10012 0.56149,-0.6725 1.33201,-1.13742 2.12359,-1.48737 1.00261,-0.44324 2.08697,-0.77178 3.19109,-0.74894 0.58112,0.012 1.20475,0.15632 1.60772,0.61146 0.54719,0.61804 0.92722,1.36653 1.22629,2.12868 0.28287,0.72086 0.5786,1.47388 0.51626,2.26601 -0.0612,0.77789 -0.5057,1.43934 -0.85056,2.1147 -0.26544,0.51983 -0.36995,1.11801 -0.26672,1.70051 0.43266,2.44142 1.09809,4.84111 1.3785,7.30936 0.22903,2.01599 0.26115,4.13372 -0.4887,6.04342 -0.14717,0.37481 -0.29991,0.75218 -0.50887,1.0985 -0.10318,0.171 -0.33948,0.19713 -0.48637,0.0582 -0.33746,-0.31913 -0.52075,-0.76071 -0.69355,-1.18205 -0.59541,-1.45178 -0.93074,-2.99583 -1.51212,-4.45146 -0.11675,-0.29231 -0.23729,-0.66786 -0.57969,-0.74943 -0.30616,-0.0729 -0.55641,0.19003 -0.72613,0.40638 -0.59426,0.75752 -1.00291,1.66881 -1.75305,2.299 -0.37643,0.31624 -0.89747,0.46803 -1.38101,0.33667 -0.58447,-0.15878 -1.11364,-0.52275 -1.47768,-0.99215 -0.34073,-0.43934 -0.40987,-1.01965 -0.43029,-1.55634 -0.0641,-1.6838 0.36514,-3.34257 0.37271,-5.02124 0.002,-0.36599 0.0356,-0.76229 -0.1434,-1.09417 -0.0732,-0.13568 -0.23599,-0.19001 -0.38026,-0.14466 z"
       id="path991" />
    <path
       style="fill:#e25e3c;stroke:none;stroke-width:0.264583px;stroke-linecap:butt;stroke-linejoin:miter;stroke-opacity:1;fill-opacity:1"
       d="m 171.47426,242.46926 c 0.36535,-0.50722 0.90693,-0.92213 1.09511,-1.52577 0.20664,-0.66286 0.18367,-1.36942 0.26222,-2.05399 0.10087,-0.87904 0.14943,-1.78371 -0.11736,-2.64554 -0.39621,-1.27989 -1.50291,-2.22621 -2.73873,-2.66899 -1.87325,-0.67116 -4.01397,-0.52825 -5.80501,0.32281 -1.13876,0.54111 -2.10503,1.47238 -2.59285,2.65425 -0.79199,1.91879 -1.59921,3.88208 -1.81345,5.96242 -0.10387,1.00863 -0.0201,2.15886 0.71676,2.92786 0.77173,0.80543 1.89867,1.0718 2.92656,1.38667 1.09763,0.33623 2.24208,0.80409 2.9378,1.76815 0.67654,0.93749 0.87731,2.11932 0.98325,3.24162 0.2653,2.81056 -0.0838,5.62763 -0.26141,8.43232 -0.16741,2.64302 -0.32554,5.34183 0.28649,7.94277 0.40612,1.72588 1.07122,3.87047 2.78274,4.43992 0.48531,0.16147 0.62613,-0.51804 0.69458,-0.85695 0.2942,-1.45669 0.31082,-2.95088 0.3839,-4.43019 0.0803,-1.62471 -0.12287,-3.30597 0.33266,-4.87107 0.0984,-0.33798 0.1273,-1.15803 0.52942,-0.99175 0.36521,0.15102 0.53403,0.55691 0.70479,0.88438 1.01915,1.95447 1.8639,3.99375 2.82626,5.97589 0.62631,1.28999 1.12819,2.67419 2.02362,3.79918 0.19917,0.25023 0.43941,0.66778 0.86033,0.49553 0.54947,-0.22486 0.92967,-0.72949 1.08758,-1.29607 0.24709,-0.88657 0.59323,-1.74482 0.72199,-2.66429 0.24301,-1.73535 -0.24738,-3.4723 -0.94121,-5.05127 -0.94754,-2.15636 -2.10734,-4.23194 -2.65497,-6.5586 -0.1037,-0.44058 -0.0861,-0.91585 0.15977,-1.31275 0.55288,-0.89251 1.44861,-1.49309 2.3095,-2.05715 1.47438,-0.96602 3.14829,-1.63347 4.5119,-2.75346 0.36231,-0.29758 0.91346,-0.60814 0.89703,-1.11621 -0.0121,-0.37415 -0.37344,-0.58633 -0.62997,-0.80056 -0.74956,-0.62596 -1.77434,-0.87139 -2.73441,-0.67587 -1.76048,0.35852 -3.24725,1.40875 -5.01154,1.83914 -0.16274,0.0397 -0.73051,0.0407 -0.35141,-0.17668 1.62768,-0.93327 3.61391,-1.07719 5.16118,-2.14929 0.46131,-0.31964 1.04685,-0.65473 1.15698,-1.24246 0.12653,-0.67523 -0.39519,-1.25853 -0.90107,-1.62554 -0.55805,-0.40486 -1.25003,-0.69008 -1.95687,-0.57717 -1.4629,0.23368 -2.82929,0.84159 -4.2335,1.28849 -0.71247,0.22675 -1.428,0.606 -2.18172,0.54481 -0.44762,-0.0363 -0.80723,-0.37991 -1.09346,-0.69326 -0.55216,-0.60446 -1.05564,-1.39532 -0.9652,-2.24378 0.0401,-0.37656 0.29049,-0.70852 0.63172,-0.86755 z"
       id="path995" />
    <path
       style="fill:#20c997;fill-opacity:1;stroke:none;stroke-width:0.22229px;stroke-linecap:butt;stroke-linejoin:miter;stroke-opacity:1"
       d="m 69.018373,79.705575 c 0,0 34.381777,8.261622 59.253697,7.228919 24.87192,-1.032702 65.10591,-8.777973 65.10591,-8.777973 l -4.13053,-4.918313 c 0,0 -39.76109,8.626738 -60.24385,8.626738 -20.48276,0 -56.32759,-6.548357 -56.32759,-6.548357 z"
       id="path5561" />
    <path
       style="fill:#265175;stroke:none;stroke-width:0.264583px;stroke-linecap:butt;stroke-linejoin:miter;stroke-opacity:1;fill-opacity:1"
       d="m 104.48809,85.090547 -0.25864,13.966229 h 4.78473 l 0.51727,-14.224862 z"
       id="path7906" />
    <path
       style="fill:#265175;stroke:none;stroke-width:0.264583px;stroke-linecap:butt;stroke-linejoin:miter;stroke-opacity:1;fill-opacity:1"
       d="m 137.07596,85.866448 1.42248,11.767843 h 4.13814 l -0.25863,-12.673059 z"
       id="path7908" />
    <path
       style="fill:#265175;stroke:none;stroke-width:0.264583px;stroke-linecap:butt;stroke-linejoin:miter;stroke-opacity:1;fill-opacity:1"
       d="m 167.72407,81.728306 3.10361,13.448961 4.13814,-0.646583 -2.06907,-14.224862 z"
       id="path7910" />
    <path
       style="fill:#20c997;stroke:none;stroke-width:0.264583px;stroke-linecap:butt;stroke-linejoin:miter;stroke-opacity:1;fill-opacity:1"
       d="m 94.272051,110.6953 -5.172678,3.75019 12.414427,12.67306 16.55257,-11.76784 -3.87951,-4.78473 -10.73331,9.18151 z"
       id="path7912" />
    <path
       style="fill:#265175;stroke:none;stroke-width:0.264583px;stroke-linecap:butt;stroke-linejoin:miter;stroke-opacity:1;fill-opacity:1"
       d="m 139.01571,107.59169 5.30199,0.77591 0.25864,20.30276 -5.81926,-0.38796 z"
       id="path7914" />
    <path
       style="fill:#20c997;stroke:none;stroke-width:0.264583px;stroke-linecap:butt;stroke-linejoin:miter;stroke-opacity:1;fill-opacity:1"
       d="m 118.06637,135.52415 4.52609,-4.00882 17.45779,15.00076 18.10437,-13.19032 3.49156,6.07789 -20.69072,15.38872 z"
       id="path7916" />
    <path
       style="fill:#20c997;stroke:none;stroke-width:0.264583px;stroke-linecap:butt;stroke-linejoin:miter;stroke-opacity:1;fill-opacity:1"
       d="m 161.90481,110.43667 -3.23292,4.39677 23.92363,12.02648 17.84574,-19.78549 -3.49156,-4.13815 -15.00076,16.81121 z"
       id="path7918" />
  </g>
</svg>
