<?xml version="1.0" encoding="UTF-8" standalone="no"?>
<!-- Created with Inkscape (http://www.inkscape.org/) -->

<svg
   width="200mm"
   height="120mm"
   viewBox="0 0 200 120"
   version="1.1"
   id="svg5"
   inkscape:version="1.1 (c68e22c387, 2021-05-23)"
   sodipodi:docname="rimarok.svg"
   xmlns:inkscape="http://www.inkscape.org/namespaces/inkscape"
   xmlns:sodipodi="http://sodipodi.sourceforge.net/DTD/sodipodi-0.dtd"
   xmlns="http://www.w3.org/2000/svg"
   xmlns:svg="http://www.w3.org/2000/svg">
  <sodipodi:namedview
     id="namedview7"
     pagecolor="#ffffff"
     bordercolor="#666666"
     borderopacity="1.0"
     inkscape:pageshadow="2"
     inkscape:pageopacity="0.0"
     inkscape:pagecheckerboard="0"
     inkscape:document-units="mm"
     showgrid="false"
     inkscape:zoom="1.0230034"
     inkscape:cx="372.43279"
     inkscape:cy="248.77729"
     inkscape:window-width="1920"
     inkscape:window-height="1001"
     inkscape:window-x="-9"
     inkscape:window-y="-9"
     inkscape:window-maximized="1"
     inkscape:current-layer="layer1" />
  <defs
     id="defs2" />
  <g
     inkscape:label="Calque 1"
     inkscape:groupmode="layer"
     id="layer1">
    <path
       style="fill:#265175;fill-opacity:1;stroke:none;stroke-width:0.158006px;stroke-linecap:butt;stroke-linejoin:miter;stroke-opacity:1"
       d="m 55.380026,12.987722 c -14.00305,-0.28541 -31.68626,-2.55794 -31.708818,8.51796 -0.03242,15.92043 38.429368,1.033 39.169708,18.417216 0.69038,16.210996 -57.9976016,-4.339476 -57.2002106,34.071846 0.707206,34.067016 56.3646206,28.051736 83.1061106,27.165376 26.741484,-0.88636 73.365504,-0.69064 73.365504,-0.69064 0,0 34.19578,0.69064 33.98852,-18.647426 -0.20724,-19.33807 -32.12331,-16.57549 -32.12331,-29.927967 0,-13.352479 7.34755,-10.860103 12.02034,-11.280543 4.67279,-0.42044 12.35153,-0.766347 12.59407,-15.039132 0.30326,-17.8470297 -29.70272,-13.9525 -45.75362,-13.96798 -29.12203,0.2464 -58.368794,1.8212 -87.458294,1.38129 z"
       id="path1881"
       inkscape:export-filename="C:\Users\Rimarok le for\Desktop\temp\rimarok.png"
       inkscape:export-xdpi="228.60001"
       inkscape:export-ydpi="228.60001"
       sodipodi:nodetypes="cssszcsszscc" />
    <circle
       style="opacity:0.99;fill:#e25e3c;fill-opacity:1;stroke-width:0.141472;stroke-linecap:round;stroke-linejoin:round"
       id="path1632"
       cx="115.40267"
       cy="48.044048"
       r="26.975662"
       inkscape:export-filename="C:\Users\Rimarok le for\Desktop\temp\rimarok.png"
       inkscape:export-xdpi="228.60001"
       inkscape:export-ydpi="228.60001" />
    <path
       style="fill:#ffffff;fill-opacity:1;stroke:none;stroke-width:0.166531px;stroke-linecap:butt;stroke-linejoin:miter;stroke-opacity:1"
       d="m 26.248741,82.034514 7.140493,2.63473 2.685982,8.79048 3.58131,-9.19745 9.11605,-2.52319 -9.52302,-3.90688 -3.49991,-9.6858 -2.523196,10.82531 z"
       id="path2095"
       sodipodi:nodetypes="ccccccccc"
       inkscape:export-filename="C:\Users\Rimarok le for\Desktop\temp\rimarok.png"
       inkscape:export-xdpi="228.60001"
       inkscape:export-ydpi="228.60001" />
    <path
       style="fill:#20c997;fill-opacity:1;stroke:none;stroke-width:0.166531px;stroke-linecap:butt;stroke-linejoin:miter;stroke-opacity:1"
       d="m 54.888236,96.415754 c 0,0 24.88307,1.55824 39.01394,-16.26279 C 110.2686,59.512604 111.30012,41.661662 111.30012,41.661662 l -59.831974,9.604004 -0.46043,6.906448 c 0,0 16.7886,9.451 36.71826,24.03223 20.109034,14.71248 57.752934,35.310676 57.752934,35.310676 l 5.45729,-6.77901 c 0,0 -42.62483,-24.668966 -58.049264,-34.798416 -15.42441,-10.12947 -29.35564,-19.8037 -29.35564,-19.8037 l 37.806284,-5.837526 c 0,0 -3.358964,14.879646 -13.885814,25.913606 -13.89838,14.56791 -32.61459,13.62251 -32.61459,13.62251 z"
       id="path857"
       sodipodi:nodetypes="cscccsccsccscc"
       inkscape:export-filename="C:\Users\Rimarok le for\Desktop\temp\rimarok.png"
       inkscape:export-xdpi="228.60001"
       inkscape:export-ydpi="228.60001" />
    <path
       style="fill:#ffffff;fill-opacity:1;stroke:none;stroke-width:0.0956986px;stroke-linecap:butt;stroke-linejoin:miter;stroke-opacity:1"
       d="m 149.28712,24.144412 11.37744,1.71985 2.7782,10.715939 3.30739,-11.377419 11.77431,-2.11673 -12.56808,-4.36576 -3.1751,-13.2295599 -3.36964,14.3793699 z"
       id="path2097"
       inkscape:export-filename="C:\Users\Rimarok le for\Desktop\temp\rimarok.png"
       inkscape:export-xdpi="228.60001"
       inkscape:export-ydpi="228.60001"
       sodipodi:nodetypes="ccccccccc" />
    <path
       style="fill:#ffffff;fill-opacity:1;stroke:none;stroke-width:0.129456px;stroke-linecap:butt;stroke-linejoin:miter;stroke-opacity:1"
       d="m 58.818816,29.021132 -3.35345,-2.53091 3.10036,-3.35345 3.10036,3.41673 z"
       id="path3699"
       inkscape:export-filename="C:\Users\Rimarok le for\Desktop\temp\rimarok.png"
       inkscape:export-xdpi="228.60001"
       inkscape:export-ydpi="228.60001" />
    <path
       style="fill:#ffffff;fill-opacity:1;stroke:none;stroke-width:0.166531px;stroke-linecap:butt;stroke-linejoin:miter;stroke-opacity:1"
       d="m 73.216526,24.764642 -3.49991,-3.49992 4.39524,-3.17434 2.76738,4.47663 z"
       id="path3701"
       inkscape:export-filename="C:\Users\Rimarok le for\Desktop\temp\rimarok.png"
       inkscape:export-xdpi="228.60001"
       inkscape:export-ydpi="228.60001" />
    <path
       style="fill:#ffffff;fill-opacity:1;stroke:none;stroke-width:0.166531px;stroke-linecap:butt;stroke-linejoin:miter;stroke-opacity:1"
       d="m 147.20309,78.402854 -3.90688,-4.06966 3.74409,-2.27902 3.58131,3.90688 z"
       id="path3703"
       inkscape:export-filename="C:\Users\Rimarok le for\Desktop\temp\rimarok.png"
       inkscape:export-xdpi="228.60001"
       inkscape:export-ydpi="228.60001" />
    <path
       style="fill:#ffffff;fill-opacity:1;stroke:none;stroke-width:0.166531px;stroke-linecap:butt;stroke-linejoin:miter;stroke-opacity:1"
       d="m 157.947,84.751524 -3.41851,4.23246 5.53474,3.90688 3.09296,-4.39524 z"
       id="path3705"
       inkscape:export-filename="C:\Users\Rimarok le for\Desktop\temp\rimarok.png"
       inkscape:export-xdpi="228.60001"
       inkscape:export-ydpi="228.60001" />
    <path
       style="fill:#ffffff;fill-opacity:1;stroke:none;stroke-width:0.166531px;stroke-linecap:butt;stroke-linejoin:miter;stroke-opacity:1"
       d="m 173.24896,85.565454 -3.90688,-3.25572 3.7441,-2.93016 3.5813,4.23245 z"
       id="path3707"
       inkscape:export-filename="C:\Users\Rimarok le for\Desktop\temp\rimarok.png"
       inkscape:export-xdpi="228.60001"
       inkscape:export-ydpi="228.60001" />
  </g>
</svg>
